<?xml version="1.0" encoding="UTF-8"?>
<svg version="1.1" xmlns="http://www.w3.org/2000/svg" width="230" height="230">
<path d="M0 0 C75.9 0 151.8 0 230 0 C230 75.9 230 151.8 230 230 C154.1 230 78.2 230 0 230 C0 154.1 0 78.2 0 0 Z " fill="#000000" transform="translate(0,0)"/>
<path d="M0 0 C2.48340903 -0.26727014 4.71472068 -0.34866334 7.1953125 -0.29296875 C8.25647781 -0.28660149 8.25647781 -0.28660149 9.33908081 -0.28010559 C11.60143905 -0.26329547 13.86291048 -0.22564128 16.125 -0.1875 C17.65753923 -0.17245607 19.1900924 -0.15876716 20.72265625 -0.14648438 C24.48211318 -0.11338462 28.24090618 -0.06158825 32 0 C27.63601777 8.10120071 23.10827906 16.09809044 18.5 24.0625 C17.86191406 25.16916016 17.22382813 26.27582031 16.56640625 27.41601562 C15.3118035 29.58783817 14.04775011 31.754234 12.7734375 33.91455078 C11.61871501 35.92355172 10.51618173 37.9637598 9.4765625 40.03466797 C8.99960938 40.95006348 8.52265625 41.86545898 8.03125 42.80859375 C7.63486328 43.61997803 7.23847656 44.4313623 6.83007812 45.26733398 C5 47 5 47 -3 47 C-3 69.11 -3 91.22 -3 114 C-10.92 114.495 -10.92 114.495 -19 115 C-22.79266693 118.76116637 -24.75139907 121.14810176 -27.25 125.625 C-27.85972656 126.61113281 -28.46945313 127.59726563 -29.09765625 128.61328125 C-30.79215155 131.37837272 -32.40265835 134.17803855 -34 137 C-34.42466553 137.70278076 -34.84933105 138.40556152 -35.28686523 139.12963867 C-37.09002579 142.12556692 -38.45384422 144.53480894 -38.5625 148.0625 C-39.74813433 164.74813433 -39.74813433 164.74813433 -43 168 C-44.65 168 -46.3 168 -48 168 C-49.32 163.38 -50.64 158.76 -52 154 C-52.99 158.62 -53.98 163.24 -55 168 C-56.98 168 -58.96 168 -61 168 C-61.8368335 164.37579876 -62.66887234 160.75051363 -63.5 157.125 C-63.73847656 156.09246094 -63.97695313 155.05992187 -64.22265625 153.99609375 C-64.44824219 153.00996094 -64.67382812 152.02382812 -64.90625 151.0078125 C-65.11572266 150.09660645 -65.32519531 149.18540039 -65.54101562 148.24658203 C-66 146 -66 146 -66 144 C-64.33388095 143.957279 -62.66617115 143.95936168 -61 144 C-58.54855763 146.45144237 -58.53472196 152.89861266 -58 156 C-56.68 152.04 -55.36 148.08 -54 144 C-52.35 144 -50.7 144 -49 144 C-48.01 148.29 -47.02 152.58 -46 157 C-45.01 152.71 -44.02 148.42 -43 144 C-42.34 144 -41.68 144 -41 144 C-40.855625 143.05125 -40.71125 142.1025 -40.5625 141.125 C-40 138 -40 138 -39 136 C-38.34 136 -37.68 136 -37 136 C-36.83781982 135.46342773 -36.67563965 134.92685547 -36.50854492 134.37402344 C-34.33107612 127.48279156 -31.30280995 121.19359089 -28.05273438 114.75390625 C-27.66021484 113.95339844 -27.26769531 113.15289062 -26.86328125 112.328125 C-26.50532471 111.6155957 -26.14736816 110.90306641 -25.77856445 110.16894531 C-24.84139512 107.55815437 -24.68944246 105.75887536 -25 103 C-26.08157401 100.65745638 -26.08157401 100.65745638 -27.66796875 98.41796875 C-28.23193359 97.56783203 -28.79589844 96.71769531 -29.37695312 95.84179688 C-30.27317383 94.52791992 -30.27317383 94.52791992 -31.1875 93.1875 C-32.34823994 91.4522132 -33.50840364 89.71654081 -34.66796875 87.98046875 C-35.18641357 87.21629639 -35.7048584 86.45212402 -36.23901367 85.66479492 C-38.55960316 82.15318613 -40.76918089 78.56931057 -43 75 C-43.33 87.87 -43.66 100.74 -44 114 C-49.28 114 -54.56 114 -60 114 C-60 91.89 -60 69.78 -60 47 C-44 47 -44 47 -40.25 50.2109375 C-39.0390625 52.234375 -39.0390625 52.234375 -38 54.375 C-37.59523438 55.07367188 -37.19046875 55.77234375 -36.7734375 56.4921875 C-34 61.39758716 -34 61.39758716 -34 64 C-33.34 64 -32.68 64 -32 64 C-31.74798828 63.17072998 -31.49597656 62.34145996 -31.23632812 61.48706055 C-29.84062319 57.5504781 -28.0990751 53.92950855 -26.21875 50.20703125 C-25.84866821 49.46691803 -25.47858643 48.72680481 -25.09729004 47.96426392 C-23.90245164 45.5781785 -22.70154465 43.1952145 -21.5 40.8125 C-20.67957902 39.17917232 -19.85926672 37.54579005 -19.0390625 35.91235352 C-3.98208628 5.97312942 -3.98208628 5.97312942 0 0 Z " fill="#E2E2D9" transform="translate(124,19)"/>
<path d="M0 0 C30 0 30 0 38 5 C41.59227482 8.93991432 42.29675894 12.56454696 42.21875 17.87890625 C41.63449475 23.54409551 38.66553565 27.82887323 35 32 C35.721875 32.0825 36.44375 32.165 37.1875 32.25 C40.71943208 33.19184856 42.41374057 34.41374057 45 37 C47.96160501 42.20833984 49.0822607 47.11331097 48 53 C45.83207973 58.04955915 42.69941533 62.09083813 38 65 C25.80383949 68.48461729 12.68419839 67 0 67 C0 44.89 0 22.78 0 0 Z " fill="#0149AA" transform="translate(121,66)"/>
<path d="M0 0 C2.48340903 -0.26727014 4.71472068 -0.34866334 7.1953125 -0.29296875 C8.25647781 -0.28660149 8.25647781 -0.28660149 9.33908081 -0.28010559 C11.60143905 -0.26329547 13.86291048 -0.22564128 16.125 -0.1875 C17.65753923 -0.17245607 19.1900924 -0.15876716 20.72265625 -0.14648438 C24.48211318 -0.11338462 28.24090618 -0.06158825 32 0 C27.63601777 8.10120071 23.10827906 16.09809044 18.5 24.0625 C17.54287109 25.72249023 17.54287109 25.72249023 16.56640625 27.41601562 C15.31034272 29.59036691 14.04193484 31.75764203 12.76025391 33.91699219 C10.97535162 36.94486624 10.97535162 36.94486624 9.59521484 40.01269531 C8.2607205 42.73176968 7.12547486 44.83937171 5 47 C1.11934801 48.18900239 -2.36469936 47.95874869 -6.375 47.625 C-9.88125 47.41875 -13.3875 47.2125 -17 47 C-17 60.53 -17 74.06 -17 88 C-17.66 88 -18.32 88 -19 88 C-20.85205188 85.19993212 -22.40984284 82.27804637 -24.01171875 79.328125 C-25.86370687 75.98179237 -25.86370687 75.98179237 -28.33203125 73.421875 C-30.82563226 70.56434303 -32.11624802 68.70722626 -33 65 C-31.82703723 59.13371445 -28.43763238 53.88447711 -25.52050781 48.74072266 C-23.39767497 44.91430623 -21.48936364 40.99306019 -19.56518555 37.06396484 C-15.30176165 28.37087468 -10.87629967 19.75950409 -6.375 11.1875 C-5.9612915 10.39923828 -5.54758301 9.61097656 -5.12133789 8.79882812 C-3.51224618 5.7573638 -1.91213007 2.86819511 0 0 Z " fill="#DAB315" transform="translate(124,19)"/>
<path d="M0 0 C1.66611905 -0.042721 3.33382885 -0.04063832 5 0 C7.45144237 2.45144237 7.46527804 8.89861266 8 12 C9.32 8.04 10.64 4.08 12 0 C13.65 0 15.3 0 17 0 C17.99 4.29 18.98 8.58 20 13 C20.99 8.71 21.98 4.42 23 0 C24.65 0 26.3 0 28 0 C26.20754717 20.79245283 26.20754717 20.79245283 23 24 C21.35 24 19.7 24 18 24 C16.68 19.38 15.36 14.76 14 10 C13.01 14.62 12.02 19.24 11 24 C9.02 24 7.04 24 5 24 C4.1631665 20.37579876 3.33112766 16.75051363 2.5 13.125 C2.26152344 12.09246094 2.02304687 11.05992187 1.77734375 9.99609375 C1.55175781 9.00996094 1.32617188 8.02382812 1.09375 7.0078125 C0.88427734 6.09660645 0.67480469 5.18540039 0.45898438 4.24658203 C0 2 0 2 0 0 Z " fill="#EAEAEA" transform="translate(58,163)"/>
<path d="M0 0 C12.32814312 -0.49312572 12.32814312 -0.49312572 15.4375 1.7890625 C17 4 17 4 16.75 7.625 C16.5025 8.73875 16.255 9.8525 16 11 C16 11.66 16 12.32 16 13 C16.66 13.66 17.32 14.32 18 15 C17.9375 17.9375 17.9375 17.9375 17 21 C12 24 12 24 0 24 C0 16.08 0 8.16 0 0 Z " fill="#0046A5" transform="translate(123,163)"/>
<path d="M0 0 C1.65 0 3.3 0 5 0 C6.71991514 2.18516269 7.99444303 4.0939833 9.3125 6.5 C9.67150391 7.12003906 10.03050781 7.74007812 10.40039062 8.37890625 C11.28358676 9.90977955 12.14403303 11.45373708 13 13 C13.33 8.71 13.66 4.42 14 0 C15.65 0 17.3 0 19 0 C19 7.92 19 15.84 19 24 C17.35 24 15.7 24 14 24 C12.28008486 21.81483731 11.00555697 19.9060167 9.6875 17.5 C9.32849609 16.87996094 8.96949219 16.25992188 8.59960938 15.62109375 C7.71641324 14.09022045 6.85596697 12.54626292 6 11 C5.67 15.29 5.34 19.58 5 24 C3.35 24 1.7 24 0 24 C0 16.08 0 8.16 0 0 Z " fill="#F4F4F4" transform="translate(14,163)"/>
<path d="M0 0 C1.134375 0.020625 2.26875 0.04125 3.4375 0.0625 C-1.74558879 11.2794371 -7.19223002 22.31583425 -12.95117188 33.24853516 C-18.31271097 43.44129467 -23.45182707 53.74216911 -28.5625 64.0625 C-29.2225 63.7325 -29.8825 63.4025 -30.5625 63.0625 C-30.34001083 62.53648697 -30.11752167 62.01047394 -29.88829041 61.46852112 C-27.53434765 55.90284133 -25.18154298 50.33668136 -22.8293457 44.77026367 C-21.95592887 42.7037386 -21.08223931 40.63732877 -20.20825195 38.57104492 C-18.9388651 35.56981531 -17.67034031 32.5682235 -16.40234375 29.56640625 C-15.98874603 28.58757477 -15.57514832 27.60874329 -15.14901733 26.60025024 C-12.26087652 19.75223255 -9.4150778 12.88780474 -6.63352966 5.9957428 C-4.22406313 0.07410637 -4.22406313 0.07410637 0 0 Z " fill="#0C4D9F" transform="translate(120.5625,18.9375)"/>
<path d="M0 0 C3.0625 1.8125 3.0625 1.8125 5 4 C5 4.99 5 5.98 5 7 C3.35 7 1.7 7 0 7 C-0.33 6.34 -0.66 5.68 -1 5 C-4.02934491 4.34227572 -4.02934491 4.34227572 -7 4 C-6.50452457 6.45631001 -6.50452457 6.45631001 -5 9 C-1.57831151 10.66881935 -1.57831151 10.66881935 2 12 C4 13.25 4 13.25 5 15 C4.875 18.5625 4.875 18.5625 4 22 C-0.21843298 24.81228865 -4.04776875 24.93051479 -9 24 C-11.47944699 22.21172629 -12.38469399 20.69217668 -14 18 C-14 17.34 -14 16.68 -14 16 C-12.02 16 -10.04 16 -8 16 C-7.67 16.99 -7.34 17.98 -7 19 C-5.02 19 -3.04 19 -1 19 C-1 18.01 -1 17.02 -1 16 C-1.61488281 15.74605469 -2.22976562 15.49210938 -2.86328125 15.23046875 C-3.67152344 14.88628906 -4.47976562 14.54210937 -5.3125 14.1875 C-6.11300781 13.85105469 -6.91351563 13.51460937 -7.73828125 13.16796875 C-9.99886564 12.00058579 -11.39976393 10.96484682 -13 9 C-13.57368682 5.80374487 -13.28087645 4.45184472 -11.5625 1.6875 C-7.78558577 -0.7997362 -4.3968054 -0.79017321 0 0 Z " fill="#EAEAEA" transform="translate(103,163)"/>
<path d="M0 0 C5.28 0 10.56 0 16 0 C16 1.32 16 2.64 16 4 C12.37 4 8.74 4 5 4 C5 5.98 5 7.96 5 10 C8.3 10 11.6 10 15 10 C15 11.32 15 12.64 15 14 C11.7 14 8.4 14 5 14 C5 15.98 5 17.96 5 20 C8.63 20 12.26 20 16 20 C16 21.32 16 22.64 16 24 C10.72 24 5.44 24 0 24 C0 16.08 0 8.16 0 0 Z " fill="#F5F5F5" transform="translate(39,163)"/>
<path d="M0 0 C5.9855591 -0.27207087 9.77024819 -0.26859488 15 3 C16 4 16 4 16.25 7.875 C16.2020808 11.70169024 16.2020808 11.70169024 14.6875 13.9375 C11.39585455 16.0100175 8.59067193 16.11156717 4.8125 16.0625 C3.224375 16.041875 1.63625 16.02125 0 16 C0 10.72 0 5.44 0 0 Z " fill="#000309" transform="translate(136,105)"/>
<path d="M0 0 C2.97501684 2.55001444 4.3114067 5.50929453 6 9 C-4.25390625 23.6484375 -4.25390625 23.6484375 -6.11767578 26.29980469 C-7.41122781 28.15540591 -8.69010649 30.02129561 -9.95654297 31.89550781 C-10.57803223 32.80913086 -11.19952148 33.72275391 -11.83984375 34.6640625 C-12.67890259 35.91243896 -12.67890259 35.91243896 -13.53491211 37.18603516 C-14.26013062 38.08394775 -14.26013062 38.08394775 -15 39 C-15.66 39 -16.32 39 -17 39 C-16.125 33.25 -16.125 33.25 -15 31 C-14.34 31 -13.68 31 -13 31 C-12.83709473 30.46487793 -12.67418945 29.92975586 -12.50634766 29.37841797 C-10.59921831 23.36622193 -8.14278485 17.78556643 -5.375 12.125 C-4.56883731 10.46165166 -3.76408652 8.79761808 -2.9609375 7.1328125 C-2.60821777 6.40980957 -2.25549805 5.68680664 -1.89208984 4.94189453 C-0.89261487 2.85896263 -0.89261487 2.85896263 0 0 Z " fill="#CEAB18" transform="translate(100,124)"/>
<path d="M0 0 C4.95 0 9.9 0 15 0 C14.08160162 4.59199188 13.65998007 5.89491863 10.9375 9.3125 C10.38964844 10.00988281 9.84179688 10.70726562 9.27734375 11.42578125 C8.85582031 11.94527344 8.43429688 12.46476563 8 13 C10.31 13.33 12.62 13.66 15 14 C15 15.32 15 16.64 15 18 C10.05 18 5.1 18 0 18 C0.96697501 13.16512496 1.59542796 11.80193322 4.5625 8.1875 C5.20316406 7.39730469 5.84382812 6.60710937 6.50390625 5.79296875 C6.99761719 5.20128906 7.49132812 4.60960937 8 4 C5.36 4 2.72 4 0 4 C0 2.68 0 1.36 0 0 Z " fill="#0044A0" transform="translate(179,169)"/>
<path d="M0 0 C1.32 0 2.64 0 4 0 C4 1.32 4 2.64 4 4 C4.99 4 5.98 4 7 4 C7 5.32 7 6.64 7 8 C6.34 8 5.68 8 5 8 C5 11.3 5 14.6 5 18 C5.99 18 6.98 18 8 18 C8 19.32 8 20.64 8 22 C5.125 22.125 5.125 22.125 2 22 C0 20 0 20 -0.1953125 17.1796875 C-0.17210937 16.08914062 -0.14890625 14.99859375 -0.125 13.875 C-0.10695312 12.77929688 -0.08890625 11.68359375 -0.0703125 10.5546875 C-0.04710937 9.71164063 -0.02390625 8.86859375 0 8 C-0.99 8 -1.98 8 -3 8 C-3 6.68 -3 5.36 -3 4 C-2.01 4 -1.02 4 0 4 C0 2.68 0 1.36 0 0 Z " fill="#00449F" transform="translate(168,165)"/>
<path d="M0 0 C6.8359375 0.48828125 6.8359375 0.48828125 9 1 C11 4 11 4 10.875 7.5 C10 11 10 11 8.3125 12.9375 C6 14 6 14 0 14 C0 9.38 0 4.76 0 0 Z " fill="#030505" transform="translate(137,78)"/>
<path d="M0 0 C1.65 0 3.3 0 5 0 C5 8.25 5 16.5 5 25 C3.35 25 1.7 25 0 25 C0 16.75 0 8.5 0 0 Z " fill="#0046A5" transform="translate(146,162)"/>
<path d="M0 0 C1.32 0 2.64 0 4 0 C4 5.94 4 11.88 4 18 C2.68 18 1.36 18 0 18 C0 12.06 0 6.12 0 0 Z " fill="#0049AA" transform="translate(157,169)"/>
<path d="M0 0 C0.66 0 1.32 0 2 0 C1.47235143 4.96208371 0.40667416 8.86587888 -1.72265625 13.37109375 C-2.26083984 14.52158203 -2.79902344 15.67207031 -3.35351562 16.85742188 C-4.19946289 18.62956055 -4.19946289 18.62956055 -5.0625 20.4375 C-5.63692159 21.65780155 -6.21049724 22.87850168 -6.78320312 24.09960938 C-8.18054415 27.07042685 -9.58633284 30.03692565 -11 33 C-12.31871498 29.04385506 -11.00230452 26.80641476 -9.47265625 23.14453125 C-9.07100502 22.15207649 -9.07100502 22.15207649 -8.66123962 21.13957214 C-7.80382415 19.0268242 -6.93337374 16.91973128 -6.0625 14.8125 C-5.47895136 13.38121229 -4.89625832 11.94957542 -4.31445312 10.51757812 C-2.88619915 7.00758994 -1.44623164 3.50261693 0 0 Z " fill="#225589" transform="translate(98,122)"/>
<path d="M0 0 C2.64 0 5.28 0 8 0 C8 3.96 8 7.92 8 12 C5.37803569 9.37803569 4.02427165 7.5047228 2.3125 4.3125 C1.87550781 3.50425781 1.43851562 2.69601563 0.98828125 1.86328125 C0.66214844 1.24839844 0.33601563 0.63351563 0 0 Z " fill="#0A0A08" transform="translate(98,94)"/>
<path d="M0 0 C2.31 0 4.62 0 7 0 C7.625 1.875 7.625 1.875 8 4 C6 6 6 6 2.875 6.125 C1.451875 6.063125 1.451875 6.063125 0 6 C0 4.02 0 2.04 0 0 Z " fill="#000307" transform="translate(128,177)"/>
<path d="M0 0 C0.66 0.33 1.32 0.66 2 1 C1.38188466 5.55315948 -0.46765893 9.28459767 -2.5625 13.3125 C-3.0565332 14.28026367 -3.0565332 14.28026367 -3.56054688 15.26757812 C-4.36824255 16.84785228 -5.18337613 18.42432105 -6 20 C-6.66 19.67 -7.32 19.34 -8 19 C-5.36 12.73 -2.72 6.46 0 0 Z " fill="#215489" transform="translate(98,63)"/>
<path d="M0 0 C1.98 0 3.96 0 6 0 C6.38218767 1.65614657 6.71395102 3.32457024 7 5 C6 6 6 6 2.9375 6.0625 C1.4834375 6.0315625 1.4834375 6.0315625 0 6 C0 4.02 0 2.04 0 0 Z " fill="#000308" transform="translate(128,167)"/>
<path d="M0 0 C0.66 0 1.32 0 2 0 C1.50269348 4.97306516 0.44697666 8.63799813 -2 13 C-2.33 13 -2.66 13 -3 13 C-2.52060632 8.28596212 -2.03165952 4.33420699 0 0 Z " fill="#13519C" transform="translate(98,122)"/>
<path d="M0 0 C1.98 0 3.96 0 6 0 C2.25 6.875 2.25 6.875 0 8 C0 5.36 0 2.72 0 0 Z " fill="#D8B011" transform="translate(137,78)"/>
<path d="M0 0 C1.32 0 2.64 0 4 0 C4 1.65 4 3.3 4 5 C2.35 4.67 0.7 4.34 -1 4 C-0.67 2.68 -0.34 1.36 0 0 Z " fill="#003D90" transform="translate(157,162)"/>
<path d="M0 0 C1.98 0.495 1.98 0.495 4 1 C3.67 2.32 3.34 3.64 3 5 C1.68 4.67 0.36 4.34 -1 4 C-0.67 2.68 -0.34 1.36 0 0 Z " fill="#D0A910" transform="translate(200,182)"/>
</svg>
