<?xml version="1.0" encoding="UTF-8"?>
<svg version="1.1" xmlns="http://www.w3.org/2000/svg" width="500" height="500">
<path d="M0 0 C165 0 330 0 500 0 C500 165 500 330 500 500 C335 500 170 500 0 500 C0 335 0 170 0 0 Z " fill="#000000" transform="translate(0,0)"/>
<path d="M0 0 C2.48340903 -0.26727014 4.71472068 -0.34866334 7.1953125 -0.29296875 C8.25647781 -0.28660149 8.25647781 -0.28660149 9.33908081 -0.28010559 C11.60143905 -0.26329547 13.86291048 -0.22564128 16.125 -0.1875 C17.65753923 -0.17245607 19.1900924 -0.15876716 20.72265625 -0.14648438 C24.48211318 -0.11338462 28.24090618 -0.06158825 32 0 C27.69159424 7.99292487 23.23339711 15.89000476 18.6875 23.75 C18.03322021 24.8829248 17.37894043 26.01584961 16.70483398 27.18310547 C11.88769075 35.50713849 7.0017958 43.78566868 2 52 C4.31 52 6.62 52 9 52 C10.79569365 66.49973293 9.82663874 76.23844101 0.74902344 87.93530273 C-0.54690205 89.55037645 -1.85483247 91.15589975 -3.17529297 92.75097656 C-5.7864437 95.9693229 -8.07700084 99.36749105 -10.375 102.8125 C-11.25571933 104.10169288 -12.13860563 105.38940752 -13.0234375 106.67578125 C-13.48975586 107.35463379 -13.95607422 108.03348633 -14.43652344 108.73291016 C-17.6087609 113.33275355 -20.80628687 117.91505497 -24 122.5 C-30.36822637 131.64292127 -36.70295976 140.80792219 -43 150 C-43.33 149.34 -43.66 148.68 -44 148 C-43.26821134 145.92803369 -42.44100997 143.8891448 -41.5625 141.875 C-40.85287109 140.23144531 -40.85287109 140.23144531 -40.12890625 138.5546875 C-39.75636719 137.71164062 -39.38382812 136.86859375 -39 136 C-38.34 136 -37.68 136 -37 136 C-36.827034 135.4455722 -36.65406799 134.89114441 -36.4758606 134.31991577 C-34.74747211 128.93942484 -32.69302072 123.87657306 -30.2421875 118.7890625 C-29.8936673 118.05424652 -29.54514709 117.31943054 -29.18606567 116.56234741 C-28.08722383 114.24755458 -26.9815041 111.93613854 -25.875 109.625 C-24.76258972 107.29187467 -23.65166349 104.95805838 -22.54251099 102.62338257 C-21.85577176 101.17884973 -21.16695296 99.73530323 -20.47579956 98.2928772 C-19.16875259 95.55133781 -17.96159956 92.88479867 -17 90 C-18.98 89.67 -20.96 89.34 -23 89 C-23.33 88.01 -23.66 87.02 -24 86 C-22.5625 83.3125 -22.5625 83.3125 -21 81 C-19.8553125 81.4640625 -19.8553125 81.4640625 -18.6875 81.9375 C-16.81210323 82.67893593 -14.91315348 83.36228217 -13 84 C-12.505 82.02 -12.505 82.02 -12 80 C-12.94875 79.71125 -13.8975 79.4225 -14.875 79.125 C-18 78 -18 78 -20 76 C-21.98 76 -23.96 76 -26 76 C-28.64 80.62 -31.28 85.24 -34 90 C-36.31 90 -38.62 90 -41 90 C-41.83790789 88.21046815 -42.67019396 86.41830305 -43.5 84.625 C-43.9640625 83.62726563 -44.428125 82.62953125 -44.90625 81.6015625 C-46 79 -46 79 -46 77 C-46.66 77 -47.32 77 -48 77 C-48.0825 77.66 -48.165 78.32 -48.25 79 C-49.24759791 82.99039163 -51.07166683 86.38549643 -53 90 C-55.31 90 -57.62 90 -60 90 C-62.64 85.05 -65.28 80.1 -68 75 C-68.495 76.485 -68.495 76.485 -69 78 C-75.6 78 -82.2 78 -89 78 C-88.67 78.99 -88.34 79.98 -88 81 C-85.2201184 82.3899408 -83.0813674 82.18488204 -80 82 C-79.34 81.608125 -78.68 81.21625 -78 80.8125 C-77.01 80.4103125 -77.01 80.4103125 -76 80 C-72.75 81.375 -72.75 81.375 -70 83 C-71.19471085 86.71687819 -73.46301008 88.45114869 -76.87890625 90.2265625 C-80.96394137 91.71613332 -84.75417859 91.89942634 -89 91 C-92.65765925 89.03325863 -96.11048556 86.77902889 -98 83 C-98.33 85.31 -98.66 87.62 -99 90 C-102.65797417 91.05069471 -105.36490941 91.21334768 -109 90 C-113.30026943 85.84966807 -116.07725485 80.13837453 -119 75 C-120.98 71.7 -122.96 68.4 -125 65 C-125.33 73.25 -125.66 81.5 -126 90 C-129.63 90 -133.26 90 -137 90 C-137 75.48 -137 60.96 -137 46 C-126 46 -126 46 -122.94921875 48.9296875 C-122.15482666 50.22073932 -121.40118611 51.53764225 -120.6875 52.875 C-120.31044922 53.50664062 -119.93339844 54.13828125 -119.54492188 54.7890625 C-118.32904039 56.83945286 -117.16560048 58.92061453 -116 61 C-114.02 64.3 -112.04 67.6 -110 71 C-109.67 62.75 -109.34 54.5 -109 46 C-105.7 46 -102.4 46 -99 46 C-98.505 57.88 -98.505 57.88 -98 70 C-96.02 67.69 -94.04 65.38 -92 63 C-89.30335792 61.65167896 -87.13412479 61.83089318 -84.125 61.8125 C-83.07570312 61.79832031 -82.02640625 61.78414062 -80.9453125 61.76953125 C-78.06452929 61.99495063 -76.43759792 62.51035683 -74 64 C-74 63.34 -74 62.68 -74 62 C-70.37 62 -66.74 62 -63 62 C-61.02 66.29 -59.04 70.58 -57 75 C-54.69 70.71 -52.38 66.42 -50 62 C-47.69 62 -45.38 62 -43 62 C-42.32645501 63.43429001 -41.66140299 64.87257057 -41 66.3125 C-40.62875 67.11300781 -40.2575 67.91351563 -39.875 68.73828125 C-39 71 -39 71 -39 74 C-38.34 74 -37.68 74 -37 74 C-36.67 72.02 -36.34 70.04 -36 68 C-35.34 68 -34.68 68 -34 68 C-33.75701172 67.18877686 -33.51402344 66.37755371 -33.26367188 65.54174805 C-31.74585042 61.28768393 -29.81357296 57.3597799 -27.78125 53.33203125 C-27.36387573 52.49774094 -26.94650146 51.66345062 -26.51647949 50.80387878 C-25.63072024 49.03537552 -24.74302152 47.26784248 -23.85351562 45.5012207 C-22.52807344 42.8682671 -21.20880007 40.23230105 -19.890625 37.59570312 C-15.49330931 28.81908172 -11.03139275 20.07863664 -6.46875 11.38671875 C-6.04920044 10.58611526 -5.62965088 9.78551178 -5.1973877 8.96064758 C-4.61144836 7.85030403 -4.61144836 7.85030403 -4.01367188 6.7175293 C-3.67203003 6.06970993 -3.33038818 5.42189056 -2.97839355 4.75444031 C-2.06755763 3.1211433 -1.0373459 1.55601886 0 0 Z " fill="#DDDDD4" transform="translate(256,162)"/>
<path d="M0 0 C2.48340903 -0.26727014 4.71472068 -0.34866334 7.1953125 -0.29296875 C8.25647781 -0.28660149 8.25647781 -0.28660149 9.33908081 -0.28010559 C11.60143905 -0.26329547 13.86291048 -0.22564128 16.125 -0.1875 C17.65753923 -0.17245607 19.1900924 -0.15876716 20.72265625 -0.14648438 C24.48211318 -0.11338462 28.24090618 -0.06158825 32 0 C27.69159424 7.99292487 23.23339711 15.89000476 18.6875 23.75 C18.03322021 24.8829248 17.37894043 26.01584961 16.70483398 27.18310547 C11.88769075 35.50713849 7.0017958 43.78566868 2 52 C4.31 52 6.62 52 9 52 C10.79569365 66.49973293 9.82663874 76.23844101 0.74902344 87.93530273 C-0.54690205 89.55037645 -1.85483247 91.15589975 -3.17529297 92.75097656 C-5.7864437 95.9693229 -8.07700084 99.36749105 -10.375 102.8125 C-11.25571933 104.10169288 -12.13860563 105.38940752 -13.0234375 106.67578125 C-13.48975586 107.35463379 -13.95607422 108.03348633 -14.43652344 108.73291016 C-17.6087609 113.33275355 -20.80628687 117.91505497 -24 122.5 C-30.36822637 131.64292127 -36.70295976 140.80792219 -43 150 C-43.33 149.34 -43.66 148.68 -44 148 C-43.26821134 145.92803369 -42.44100997 143.8891448 -41.5625 141.875 C-41.08941406 140.77929688 -40.61632812 139.68359375 -40.12890625 138.5546875 C-39.75636719 137.71164062 -39.38382813 136.86859375 -39 136 C-38.34 136 -37.68 136 -37 136 C-36.8263089 135.45146362 -36.6526178 134.90292725 -36.47366333 134.33776855 C-33.86869127 126.29582581 -30.51805759 118.67543435 -27.00488281 110.99511719 C-26.24804562 109.32379565 -25.50561501 107.64587938 -24.77734375 105.96191406 C-23.71558069 103.51015473 -22.60970511 101.08301079 -21.4921875 98.65625 C-21.01820023 97.52515808 -21.01820023 97.52515808 -20.53463745 96.37121582 C-19.51886398 94.24226721 -18.67631922 92.66379709 -17 91 C-14.64562246 90.30247565 -12.61021393 90.11664725 -10.15872192 90.09606934 C-6.41428573 89.92943115 -4.56482447 88.6305892 -2 86 C-1.4924201 82.83444796 -1.71438556 80.23696365 -2 77 C-5.63 75.02 -9.26 73.04 -13 71 C-13 70.34 -13 69.68 -13 69 C-10.03 69 -7.06 69 -4 69 C-3.01 67.02 -2.02 65.04 -1 63 C-10.57 63 -20.14 63 -30 63 C-31.98 67.62 -33.96 72.24 -36 77 C-36.66 77 -37.32 77 -38 77 C-37.34 74.03 -36.68 71.06 -36 68 C-35.34 68 -34.68 68 -34 68 C-33.75701172 67.18877686 -33.51402344 66.37755371 -33.26367188 65.54174805 C-31.74585042 61.28768393 -29.81357296 57.3597799 -27.78125 53.33203125 C-27.36387573 52.49774094 -26.94650146 51.66345062 -26.51647949 50.80387878 C-25.63072024 49.03537552 -24.74302152 47.26784248 -23.85351562 45.5012207 C-22.52807344 42.8682671 -21.20880007 40.23230105 -19.890625 37.59570312 C-15.49330931 28.81908172 -11.03139275 20.07863664 -6.46875 11.38671875 C-5.83942566 10.18581352 -5.83942566 10.18581352 -5.1973877 8.96064758 C-4.61144836 7.85030403 -4.61144836 7.85030403 -4.01367188 6.7175293 C-3.67203003 6.06970993 -3.33038818 5.42189056 -2.97839355 4.75444031 C-2.06755763 3.1211433 -1.0373459 1.55601886 0 0 Z " fill="#DAB212" transform="translate(256,162)"/>
<path d="M0 0 C3.3 0 6.6 0 10 0 C10 15.18 10 30.36 10 46 C6.7 46 3.4 46 0 46 C-0.495 43.525 -0.495 43.525 -1 41 C-1.763125 41.639375 -2.52625 42.27875 -3.3125 42.9375 C-11.49906762 49.22021469 -17.68071974 46 -30 46 C-30 31.48 -30 16.96 -30 2 C-10 2 -10 2 -5 5 C-2.53402749 8.69895876 -2.43102872 11.7076137 -3 16 C-4.15632746 18.36293002 -5.14983755 20.14983755 -7 22 C-5.02 23.32 -3.04 24.64 -1 26 C-0.67 17.42 -0.34 8.84 0 0 Z " fill="#0047A7" transform="translate(295,206)"/>
<path d="M0 0 C3.3 0 6.6 0 10 0 C10 3.3 10 6.6 10 10 C20.23 10 30.46 10 41 10 C39.55898885 13.60252788 38.52672802 15.94433085 36.3984375 18.98828125 C35.90859375 19.69404297 35.41875 20.39980469 34.9140625 21.12695312 C34.15222656 22.20879883 34.15222656 22.20879883 33.375 23.3125 C32.859375 24.05306641 32.34375 24.79363281 31.8125 25.55664062 C30.54608516 27.37418044 29.27363832 29.1875147 28 31 C31.96 31 35.92 31 40 31 C40 33.31 40 35.62 40 38 C35.25028469 38.24246079 30.50040737 38.4572924 25.74829102 38.64697266 C24.13304627 38.71529312 22.51809819 38.7910606 20.90356445 38.87451172 C18.57802307 38.99340296 16.25271813 39.08517146 13.92578125 39.171875 C13.20787918 39.21439392 12.48997711 39.25691284 11.75032043 39.30072021 C8.08174013 39.4103087 6.18737801 39.12047846 3.06713867 37.11425781 C-0.0953675 33.87966428 -0.10934618 31.95494267 -0.08789062 27.4921875 C-0.07951172 26.79351562 -0.07113281 26.09484375 -0.0625 25.375 C-0.05798828 24.66859375 -0.05347656 23.9621875 -0.04882812 23.234375 C-0.03703875 21.48954725 -0.01910324 19.744763 0 18 C-0.99 18 -1.98 18 -3 18 C-3 24.6 -3 31.2 -3 38 C-6.3 38 -9.6 38 -13 38 C-13 28.76 -13 19.52 -13 10 C-8.71 10 -4.42 10 0 10 C0 6.7 0 3.4 0 0 Z " fill="#0046A4" transform="translate(319,214)"/>
<path d="M0 0 C0.99 0.33 1.98 0.66 3 1 C2.1875 3.9375 2.1875 3.9375 1 7 C-2.69418201 8.231394 -5.2056261 7.64432764 -9 7 C-6.82830512 9.39023022 -4.7918773 10.75805012 -1.875 12.125 C1.91666667 13.91666667 1.91666667 13.91666667 3 15 C3.43336933 18.05215831 3.49074939 20.95415324 3 24 C0.44148024 26.6931787 -2.1432459 28.80335802 -5.91796875 29.203125 C-11.42762286 29.31692164 -15.08881489 28.5078392 -20 26 C-19.34 24.02 -18.68 22.04 -18 20 C-14.20442119 20 -12.37097383 20.50178941 -9 22 C-8.67 20.68 -8.34 19.36 -8 18 C-8.9075 17.7525 -9.815 17.505 -10.75 17.25 C-14.20817171 15.91993396 -15.83928199 14.9917634 -18 12 C-18.77636337 8.03192057 -18.12417397 6.24834794 -16.3125 2.625 C-12.24943085 -1.8855956 -5.51473121 -0.57475431 0 0 Z " fill="#E3E2D3" transform="translate(252,224)"/>
<path d="M0 0 C-1.61026693 4.90702646 -4.43866384 8.67945242 -7.4375 12.8125 C-8.53600441 14.34704945 -9.63364278 15.88221918 -10.73046875 17.41796875 C-11.55877197 18.57498291 -11.55877197 18.57498291 -12.40380859 19.75537109 C-14.72461493 23.01898282 -16.99033879 26.31888972 -19.25 29.625 C-23.9854166 36.53092665 -28.73453501 43.42726895 -33.5 50.3125 C-34.54269043 51.82674561 -34.54269043 51.82674561 -35.60644531 53.37158203 C-36.26225586 54.31759277 -36.91806641 55.26360352 -37.59375 56.23828125 C-38.17833984 57.08430908 -38.76292969 57.93033691 -39.36523438 58.80200195 C-40.7968147 60.72681045 -42.25098999 62.36610882 -44 64 C-42.45730076 59.27934033 -40.92205381 54.58335908 -39 50 C-38.34 50 -37.68 50 -37 50 C-36.8263089 49.45146362 -36.6526178 48.90292725 -36.47366333 48.33776855 C-33.86869127 40.29582581 -30.51805759 32.67543435 -27.00488281 24.99511719 C-26.24804562 23.32379565 -25.50561501 21.64587938 -24.77734375 19.96191406 C-23.71558069 17.51015473 -22.60970511 15.08301079 -21.4921875 12.65625 C-21.17619598 11.90218872 -20.86020447 11.14812744 -20.53463745 10.37121582 C-19.51863947 8.24179667 -18.6783491 6.66266493 -17 5 C-14.63851477 4.32336812 -12.59931917 4.15034654 -10.14651489 4.15100098 C-5.99492648 3.85894901 -3.93871835 0 0 0 Z " fill="#D6AF13" transform="translate(256,248)"/>
<path d="M0 0 C2.97 0 5.94 0 9 0 C9 15.18 9 30.36 9 46 C6.03 46 3.06 46 0 46 C-0.91422856 35.44394907 -1.00219926 25.13908353 -0.5625 14.5625 C-0.50905658 13.13739621 -0.4563194 11.71226575 -0.40429688 10.28710938 C-0.27762026 6.85772878 -0.1415693 3.42880207 0 0 Z " fill="#0049AC" transform="translate(296,206)"/>
<path d="M0 0 C1.134375 0.020625 2.26875 0.04125 3.4375 0.0625 C-1.70167446 11.18440029 -7.09793809 22.12859685 -12.81054688 32.96728516 C-18.91346535 44.57254829 -24.7357288 56.31676184 -30.5625 68.0625 C-31.74024339 64.52926984 -31.37934755 63.9759796 -29.95117188 60.67724609 C-29.57327515 59.7913681 -29.19537842 58.90549011 -28.80603027 57.99276733 C-28.38535278 57.03351349 -27.96467529 56.07425964 -27.53125 55.0859375 C-26.8881488 53.58796127 -26.8881488 53.58796127 -26.23205566 52.0597229 C-24.85119774 48.84835059 -23.45726237 45.64285452 -22.0625 42.4375 C-20.70309352 39.29006278 -19.34639693 36.14146778 -17.98999023 32.99273682 C-17.1042715 30.93785476 -16.21707561 28.88360876 -15.32836914 26.83001709 C-12.33587803 19.90514333 -9.42046483 12.95292656 -6.6048584 5.95419312 C-4.2232854 0.07409273 -4.2232854 0.07409273 0 0 Z " fill="#0C4D9F" transform="translate(252.5625,161.9375)"/>
<path d="M0 0 C4.95 0 9.9 0 15 0 C12.28316728 4.93054827 9.33342102 9.46284362 6 14 C4.02 13.34 2.04 12.68 0 12 C0 8.04 0 4.08 0 0 Z " fill="#000103" transform="translate(329,232)"/>
<path d="M0 0 C1.32 0.33 2.64 0.66 4 1 C3.35733663 5.43063408 1.68272657 9.17435381 -0.23828125 13.171875 C-0.56032028 13.85372864 -0.88235931 14.53558228 -1.2141571 15.23809814 C-2.241745 17.41123837 -3.27682517 19.58070392 -4.3125 21.75 C-5.6645787 24.59809764 -7.01382356 27.44753481 -8.36328125 30.296875 C-8.68523468 30.97512329 -9.00718811 31.65337158 -9.33889771 32.35217285 C-11.63688647 37.2020166 -13.85457037 42.08040301 -16 47 C-17.33887634 42.98337097 -16.25261277 41.51795431 -14.6484375 37.63671875 C-14.39252838 37.00828568 -14.13661926 36.3798526 -13.87295532 35.7323761 C-13.04917927 33.71364321 -12.2127863 31.70045402 -11.375 29.6875 C-10.29497926 27.06823964 -9.22045585 24.4467636 -8.1484375 21.82421875 C-7.88424011 21.17983856 -7.62004272 20.53545837 -7.34783936 19.87155151 C-4.68364631 13.32246088 -2.31358247 6.68029075 0 0 Z " fill="#164F93" transform="translate(235,251)"/>
<path d="M0 0 C2 2 2 2 2.3125 5.4375 C2 9 2 9 0.8125 10.9375 C-1.70554428 12.41359492 -3.12476676 12.49089348 -6 12 C-8.77389443 9.97580677 -9.85519403 8.84814923 -10.4375 5.4375 C-10 3 -10 3 -8.9375 1.1875 C-5.94449731 -0.646921 -3.42183337 -0.31107576 0 0 Z " fill="#D2AB10" transform="translate(378,241)"/>
<path d="M0 0 C3.0625 0.3125 3.0625 0.3125 5 1.4375 C6.0625 3.3125 6.0625 3.3125 5.9375 6.375 C5.0625 9.3125 5.0625 9.3125 2.0625 11.3125 C-1.25990324 10.9883631 -2.54526303 10.70473697 -4.9375 8.3125 C-5.1875 5.3125 -5.1875 5.3125 -4.9375 2.3125 C-2.9375 0.3125 -2.9375 0.3125 0 0 Z " fill="#0046A5" transform="translate(310.9375,207.6875)"/>
<path d="M0 0 C6.625 -0.25 6.625 -0.25 10 2 C10.375 5 10.375 5 10 8 C6.3558226 10.4294516 4.28758728 10.16179575 0 10 C0 6.7 0 3.4 0 0 Z " fill="#000002" transform="translate(275,234)"/>
<path d="M0 0 C2.375 -0.125 2.375 -0.125 5 0 C7 2 7 2 7.3125 4.5 C7.209375 5.325 7.10625 6.15 7 7 C4 9 4 9 0 9 C0 6.03 0 3.06 0 0 Z " fill="#2D2605" transform="translate(275,216)"/>
<path d="M0 0 C0.66 0.33 1.32 0.66 2 1 C1.42022443 4.47598164 0.53478895 7.29104698 -1.06640625 10.42578125 C-1.46923828 11.22177734 -1.87207031 12.01777344 -2.28710938 12.83789062 C-2.70798828 13.65451172 -3.12886719 14.47113281 -3.5625 15.3125 C-3.98724609 16.14845703 -4.41199219 16.98441406 -4.84960938 17.84570312 C-5.8943479 19.89996426 -6.94459762 21.95120292 -8 24 C-9.22444576 20.32666271 -8.65749402 19.5683084 -7.12890625 16.11328125 C-6.51499023 14.7065918 -6.51499023 14.7065918 -5.88867188 13.27148438 C-5.45103516 12.29501953 -5.01339844 11.31855469 -4.5625 10.3125 C-4.12873047 9.32443359 -3.69496094 8.33636719 -3.24804688 7.31835938 C-2.17390467 4.87498095 -1.09095482 2.43590696 0 0 Z " fill="#235585" transform="translate(230,206)"/>
<path d="M0 0 C1.11083984 1.71582031 1.11083984 1.71582031 2 4 C1.40087891 6.19824219 1.40087891 6.19824219 0.2265625 8.546875 C-0.1859375 9.39121094 -0.5984375 10.23554688 -1.0234375 11.10546875 C-1.69246094 12.41451172 -1.69246094 12.41451172 -2.375 13.75 C-3.03242188 15.08224609 -3.03242188 15.08224609 -3.703125 16.44140625 C-4.78814649 18.63503666 -5.88734738 20.82029008 -7 23 C-8.1916143 19.42515711 -7.74788456 18.71412118 -6.34765625 15.33203125 C-5.98349609 14.43935547 -5.61933594 13.54667969 -5.24414062 12.62695312 C-4.85419922 11.69818359 -4.46425781 10.76941406 -4.0625 9.8125 C-3.67642578 8.87212891 -3.29035156 7.93175781 -2.89257812 6.96289062 C-1.93678351 4.63830372 -0.97232993 2.31770801 0 0 Z " fill="#225589" transform="translate(226,275)"/>
<path d="M0 0 C1.39211215 4.17633644 -0.0464421 5.78960515 -1.9375 9.6875 C-2.50339844 10.86699219 -3.06929687 12.04648437 -3.65234375 13.26171875 C-4.09707031 14.16535156 -4.54179687 15.06898438 -5 16 C-5.33 16 -5.66 16 -6 16 C-5.46060633 9.74303344 -4.63698228 4.63698228 0 0 Z " fill="#0F4F9D" transform="translate(233,262)"/>
<path d="M0 0 C1.98 0 3.96 0 6 0 C6.66 1.32 7.32 2.64 8 4 C4.7 4 1.4 4 -2 4 C-1.34 2.68 -0.68 1.36 0 0 Z " fill="#0D0D0D" transform="translate(169,230)"/>
<path d="M0 0 C0.85739516 3.1546906 1.18782371 4.89338414 0 8 C-1.28796166 10.02951535 -2.61558 12.03501678 -4 14 C-4.33 13.34 -4.66 12.68 -5 12 C-4.26821134 9.92803369 -3.44100997 7.8891448 -2.5625 5.875 C-2.08941406 4.77929688 -1.61632812 3.68359375 -1.12890625 2.5546875 C-0.75636719 1.71164062 -0.38382813 0.86859375 0 0 Z " fill="#868036" transform="translate(217,298)"/>
<path d="M0 0 C1.23593891 3.70781672 0.5678132 4.67510253 -0.9375 8.1875 C-1.31777344 9.08855469 -1.69804687 9.98960937 -2.08984375 10.91796875 C-2.54037109 11.94857422 -2.54037109 11.94857422 -3 13 C-3.66 13 -4.32 13 -5 13 C-4.34 10.03 -3.68 7.06 -3 4 C-2.34 4 -1.68 4 -1 4 C-0.67 2.68 -0.34 1.36 0 0 Z " fill="#BCA432" transform="translate(223,226)"/>
<path d="M0 0 C1.32 0.33 2.64 0.66 4 1 C3.67 2.32 3.34 3.64 3 5 C1.35 4.67 -0.3 4.34 -2 4 C-1.34 2.68 -0.68 1.36 0 0 Z " fill="#235B9F" transform="translate(240,241)"/>
<path d="M0 0 C0.33 0 0.66 0 1 0 C1.33 2.31 1.66 4.62 2 7 C0.35 7 -1.3 7 -3 7 C-2.01 4.69 -1.02 2.38 0 0 Z " fill="#DEBD38" transform="translate(233,230)"/>
</svg>
